<svg width="20" height="20" viewBox="0 0 20 20" fill="none" xmlns="http://www.w3.org/2000/svg">
<g clip-path="url(#clip0_9_776)">
<path d="M10 18.3333C5.39751 18.3333 1.66667 14.6025 1.66667 9.99999C1.66667 6.26832 4.11917 3.10999 7.5 2.04832V3.81832C6.06744 4.40003 4.8815 5.46141 4.14505 6.82092C3.40861 8.18043 3.16741 9.75358 3.46272 11.2713C3.75803 12.789 4.5715 14.1569 5.76398 15.1411C6.95645 16.1253 8.45384 16.6645 10 16.6667C11.3282 16.6666 12.626 16.27 13.7274 15.5277C14.8287 14.7854 15.6833 13.7311 16.1817 12.5H17.9517C16.89 15.8808 13.7317 18.3333 10 18.3333ZM18.2917 10.8333H9.16667V1.70832C9.44084 1.68082 9.71917 1.66666 10 1.66666C14.6025 1.66666 18.3333 5.39749 18.3333 9.99999C18.3333 10.2808 18.3192 10.5592 18.2917 10.8333ZM10.8333 3.38499V9.16666H16.615C16.4295 7.698 15.7607 6.33277 14.714 5.28602C13.6672 4.23927 12.302 3.57048 10.8333 3.38499Z" fill="#BBC3CD"/>
</g>
<defs>
<clipPath id="clip0_9_776">
<rect width="20" height="20" fill="white"/>
</clipPath>
</defs>
</svg>
