<svg width="18" height="18" viewBox="0 0 18 18" fill="none" xmlns="http://www.w3.org/2000/svg">
<path d="M8.99935 17.3333C4.39685 17.3333 0.666016 13.6025 0.666016 9C0.666016 4.3975 4.39685 0.666668 8.99935 0.666668C13.6018 0.666668 17.3327 4.3975 17.3327 9C17.3327 13.6025 13.6018 17.3333 8.99935 17.3333ZM8.99935 15.6667C10.7675 15.6667 12.4632 14.9643 13.7134 13.714C14.9636 12.4638 15.666 10.7681 15.666 9C15.666 7.23189 14.9636 5.5362 13.7134 4.28596C12.4632 3.03571 10.7675 2.33333 8.99935 2.33333C7.23124 2.33333 5.53555 3.03571 4.2853 4.28596C3.03506 5.5362 2.33268 7.23189 2.33268 9C2.33268 10.7681 3.03506 12.4638 4.2853 13.714C5.53555 14.9643 7.23124 15.6667 8.99935 15.6667ZM8.99935 11.5C8.33631 11.5 7.70042 11.2366 7.23158 10.7678C6.76274 10.2989 6.49935 9.66304 6.49935 9C6.49935 8.33696 6.76274 7.70107 7.23158 7.23223C7.70042 6.76339 8.33631 6.5 8.99935 6.5C9.66239 6.5 10.2983 6.76339 10.7671 7.23223C11.236 7.70107 11.4993 8.33696 11.4993 9C11.4993 9.66304 11.236 10.2989 10.7671 10.7678C10.2983 11.2366 9.66239 11.5 8.99935 11.5Z" fill="#FAAD14"/>
</svg>
