<svg width="20" height="20" viewBox="0 0 20 20" fill="none" xmlns="http://www.w3.org/2000/svg">
<g clip-path="url(#clip0_12_809)">
<path d="M2.5 15.4167V4.16666C2.5 3.50362 2.76339 2.86774 3.23223 2.3989C3.70107 1.93006 4.33696 1.66666 5 1.66666H16.6667C16.8877 1.66666 17.0996 1.75446 17.2559 1.91074C17.4122 2.06702 17.5 2.27898 17.5 2.5V17.5C17.5 17.721 17.4122 17.933 17.2559 18.0893C17.0996 18.2455 16.8877 18.3333 16.6667 18.3333H5.41667C4.64312 18.3333 3.90125 18.026 3.35427 17.4791C2.80729 16.9321 2.5 16.1902 2.5 15.4167ZM15.8333 16.6667V14.1667H5.41667C5.08515 14.1667 4.7672 14.2984 4.53278 14.5328C4.29836 14.7672 4.16667 15.0851 4.16667 15.4167C4.16667 15.7482 4.29836 16.0661 4.53278 16.3005C4.7672 16.535 5.08515 16.6667 5.41667 16.6667H15.8333ZM8.33333 3.33333H5C4.77899 3.33333 4.56702 3.42113 4.41074 3.57741C4.25446 3.73369 4.16667 3.94565 4.16667 4.16666V12.7808C4.55724 12.5954 4.98429 12.4994 5.41667 12.5H15.8333V3.33333H14.1667V10L11.25 8.33333L8.33333 10V3.33333Z" fill="#BBC3CD"/>
</g>
<defs>
<clipPath id="clip0_12_809">
<rect width="20" height="20" fill="white"/>
</clipPath>
</defs>
</svg>
