<svg width="20" height="20" viewBox="0 0 20 20" fill="none" xmlns="http://www.w3.org/2000/svg">
<g clip-path="url(#clip0_50_938)">
<path d="M3.33366 6.66667H16.667V17.5C16.667 17.721 16.5792 17.933 16.4229 18.0893C16.2666 18.2455 16.0547 18.3333 15.8337 18.3333H4.16699C3.94598 18.3333 3.73402 18.2455 3.57774 18.0893C3.42146 17.933 3.33366 17.721 3.33366 17.5V6.66667ZM5.00033 8.33333V16.6667H15.0003V8.33333H5.00033ZM7.50033 10H9.16699V15H7.50033V10ZM10.8337 10H12.5003V15H10.8337V10ZM5.83366 4.16667V2.5C5.83366 2.27899 5.92146 2.06702 6.07774 1.91074C6.23402 1.75446 6.44598 1.66667 6.66699 1.66667H13.3337C13.5547 1.66667 13.7666 1.75446 13.9229 1.91074C14.0792 2.06702 14.167 2.27899 14.167 2.5V4.16667H18.3337V5.83333H1.66699V4.16667H5.83366ZM7.50033 3.33333V4.16667H12.5003V3.33333H7.50033Z" fill="#929FAF"/>
</g>
<defs>
<clipPath id="clip0_50_938">
<rect width="20" height="20" fill="white"/>
</clipPath>
</defs>
</svg>
