<svg width="20" height="20" viewBox="0 0 20 20" fill="none" xmlns="http://www.w3.org/2000/svg">
<g clip-path="url(#clip0_13_864)">
<path d="M4.16666 18.3333C3.94565 18.3333 3.73369 18.2455 3.57741 18.0892C3.42113 17.933 3.33333 17.721 3.33333 17.5V2.49999C3.33333 2.27898 3.42113 2.06701 3.57741 1.91073C3.73369 1.75445 3.94565 1.66666 4.16666 1.66666H15.8333C16.0543 1.66666 16.2663 1.75445 16.4226 1.91073C16.5789 2.06701 16.6667 2.27898 16.6667 2.49999V4.99999H15V3.33332H4.99999V16.6667H15V15H16.6667V17.5C16.6667 17.721 16.5789 17.933 16.4226 18.0892C16.2663 18.2455 16.0543 18.3333 15.8333 18.3333H4.16666ZM15 13.3333V10.8333H9.16666V9.16666H15V6.66666L19.1667 9.99999L15 13.3333Z" fill="#BBC3CD"/>
</g>
<defs>
<clipPath id="clip0_13_864">
<rect width="20" height="20" fill="white"/>
</clipPath>
</defs>
</svg>
