<svg width="28" height="24" viewBox="0 0 28 24" fill="none" xmlns="http://www.w3.org/2000/svg">
<path d="M20.6667 21.3333H23.3333V10.6667H15.3333V21.3333H18V13.3333H20.6667V21.3333ZM2 21.3333V1.33333C2 0.979711 2.14047 0.640573 2.39052 0.390524C2.64057 0.140476 2.97971 0 3.33333 0H22C22.3536 0 22.6928 0.140476 22.9428 0.390524C23.1929 0.640573 23.3333 0.979711 23.3333 1.33333V8H26V21.3333H27.3333V24H0.666664V21.3333H2ZM7.33333 10.6667V13.3333H10V10.6667H7.33333ZM7.33333 16V18.6667H10V16H7.33333ZM7.33333 5.33333V8H10V5.33333H7.33333Z" fill="white"/>
</svg>
