<svg width="20" height="20" viewBox="0 0 20 20" fill="none" xmlns="http://www.w3.org/2000/svg">
<g clip-path="url(#clip0_10_792)">
<path d="M18.3333 5.83333H19.1667V14.1667H18.3333V16.6667C18.3333 16.8877 18.2455 17.0996 18.0893 17.2559C17.933 17.4122 17.721 17.5 17.5 17.5H2.50001C2.27899 17.5 2.06703 17.4122 1.91075 17.2559C1.75447 17.0996 1.66667 16.8877 1.66667 16.6667V3.33333C1.66667 3.11232 1.75447 2.90036 1.91075 2.74408C2.06703 2.5878 2.27899 2.5 2.50001 2.5H17.5C17.721 2.5 17.933 2.5878 18.0893 2.74408C18.2455 2.90036 18.3333 3.11232 18.3333 3.33333V5.83333ZM16.6667 14.1667H11.6667C10.5616 14.1667 9.50179 13.7277 8.72039 12.9463C7.93899 12.1649 7.5 11.1051 7.5 10C7.5 8.89493 7.93899 7.83512 8.72039 7.05372C9.50179 6.27232 10.5616 5.83333 11.6667 5.83333H16.6667V4.16667H3.33334V15.8333H16.6667V14.1667ZM17.5 12.5V7.5H11.6667C11.0036 7.5 10.3677 7.76339 9.8989 8.23223C9.43006 8.70107 9.16667 9.33696 9.16667 10C9.16667 10.663 9.43006 11.2989 9.8989 11.7678C10.3677 12.2366 11.0036 12.5 11.6667 12.5H17.5ZM11.6667 9.16667H14.1667V10.8333H11.6667V9.16667Z" fill="#BBC3CD"/>
</g>
<defs>
<clipPath id="clip0_10_792">
<rect width="20" height="20" fill="white"/>
</clipPath>
</defs>
</svg>
