<svg width="20" height="20" viewBox="0 0 20 20" fill="none" xmlns="http://www.w3.org/2000/svg">
<g clip-path="url(#clip0_11_801)">
<path d="M1.66667 18.3333C1.66667 16.5652 2.36905 14.8695 3.61929 13.6193C4.86954 12.369 6.56523 11.6667 8.33334 11.6667C10.1014 11.6667 11.7971 12.369 13.0474 13.6193C14.2976 14.8695 15 16.5652 15 18.3333H13.3333C13.3333 17.0072 12.8066 15.7355 11.8689 14.7978C10.9312 13.8601 9.65942 13.3333 8.33334 13.3333C7.00726 13.3333 5.73549 13.8601 4.7978 14.7978C3.86012 15.7355 3.33334 17.0072 3.33334 18.3333H1.66667ZM8.33334 10.8333C5.57084 10.8333 3.33334 8.59583 3.33334 5.83333C3.33334 3.07083 5.57084 0.833328 8.33334 0.833328C11.0958 0.833328 13.3333 3.07083 13.3333 5.83333C13.3333 8.59583 11.0958 10.8333 8.33334 10.8333ZM8.33334 9.16666C10.175 9.16666 11.6667 7.67499 11.6667 5.83333C11.6667 3.99166 10.175 2.49999 8.33334 2.49999C6.49167 2.49999 5.00001 3.99166 5.00001 5.83333C5.00001 7.67499 6.49167 9.16666 8.33334 9.16666ZM15.2367 12.2525C16.4078 12.7799 17.4017 13.6344 18.0988 14.7131C18.796 15.7918 19.1668 17.0489 19.1667 18.3333H17.5C17.5002 17.37 17.2221 16.4271 16.6992 15.618C16.1764 14.8089 15.4309 14.168 14.5525 13.7725L15.2358 12.2525H15.2367ZM14.6633 2.84416C15.5029 3.19024 16.2208 3.77794 16.7259 4.53269C17.2309 5.28743 17.5003 6.1752 17.5 7.08333C17.5004 8.22694 17.0731 9.32935 16.3021 10.174C15.5312 11.0187 14.4722 11.5446 13.3333 11.6483V9.97083C13.9508 9.88239 14.5236 9.59834 14.9678 9.16038C15.4119 8.72241 15.7039 8.1536 15.801 7.53744C15.898 6.92128 15.795 6.29024 15.507 5.73696C15.219 5.18367 14.7612 4.73728 14.2008 4.46333L14.6633 2.84416Z" fill="#BBC3CD"/>
</g>
<defs>
<clipPath id="clip0_11_801">
<rect width="20" height="20" fill="white"/>
</clipPath>
</defs>
</svg>
