<svg width="20" height="20" viewBox="0 0 20 20" fill="none" xmlns="http://www.w3.org/2000/svg">
<g clip-path="url(#clip0_12_812)">
<path d="M5.83334 4.16667V1.66667C5.83334 1.44565 5.92114 1.23369 6.07742 1.07741C6.2337 0.921129 6.44566 0.833332 6.66667 0.833332H13.3333C13.5544 0.833332 13.7663 0.921129 13.9226 1.07741C14.0789 1.23369 14.1667 1.44565 14.1667 1.66667V4.16667H17.5C17.721 4.16667 17.933 4.25446 18.0893 4.41074C18.2455 4.56702 18.3333 4.77898 18.3333 5V16.6667C18.3333 16.8877 18.2455 17.0996 18.0893 17.2559C17.933 17.4122 17.721 17.5 17.5 17.5H2.50001C2.27899 17.5 2.06703 17.4122 1.91075 17.2559C1.75447 17.0996 1.66667 16.8877 1.66667 16.6667V5C1.66667 4.77898 1.75447 4.56702 1.91075 4.41074C2.06703 4.25446 2.27899 4.16667 2.50001 4.16667H5.83334ZM3.33334 13.3333V15.8333H16.6667V13.3333H3.33334ZM3.33334 11.6667H16.6667V5.83333H3.33334V11.6667ZM7.5 2.5V4.16667H12.5V2.5H7.5ZM9.16667 9.16667H10.8333V10.8333H9.16667V9.16667Z" fill="#BBC3CD"/>
</g>
<defs>
<clipPath id="clip0_12_812">
<rect width="20" height="20" fill="white"/>
</clipPath>
</defs>
</svg>
