<svg width="20" height="20" viewBox="0 0 20 20" fill="none" xmlns="http://www.w3.org/2000/svg">
<g clip-path="url(#clip0_278_1851)">
<path d="M10.8337 10.8333V15.4875L12.3571 13.9642L13.5362 15.1433L10.0004 18.6783L6.46457 15.1433L7.64373 13.9642L9.16707 15.4875V10.8333H10.8337ZM10.0004 1.66666C11.4312 1.66672 12.8121 2.19258 13.8806 3.14426C14.949 4.09593 15.6305 5.40704 15.7954 6.82832C16.8323 7.11109 17.7368 7.74924 18.351 8.63126C18.9651 9.51328 19.2497 10.5831 19.1551 11.6536C19.0605 12.7242 18.5926 13.7275 17.8334 14.4882C17.0741 15.2488 16.0716 15.7185 15.0012 15.815V14.1367C15.3847 14.0819 15.7534 13.9513 16.0859 13.7525C16.4183 13.5536 16.7079 13.2906 16.9375 12.9787C17.1672 12.6667 17.3325 12.3122 17.4236 11.9357C17.5148 11.5592 17.53 11.1683 17.4685 10.7859C17.4069 10.4034 17.2698 10.0371 17.0652 9.7082C16.8605 9.37932 16.5924 9.0945 16.2764 8.87038C15.9605 8.64626 15.603 8.48731 15.225 8.40283C14.8469 8.31835 14.4559 8.31002 14.0746 8.37832C14.2051 7.77073 14.198 7.14163 14.0539 6.53712C13.9098 5.9326 13.6323 5.36798 13.2417 4.8846C12.8512 4.40122 12.3574 4.01133 11.7966 3.74349C11.2359 3.47564 10.6223 3.33663 10.0008 3.33663C9.37936 3.33663 8.76578 3.47564 8.20501 3.74349C7.64423 4.01133 7.15048 4.40122 6.7599 4.8846C6.36933 5.36798 6.09182 5.9326 5.94772 6.53712C5.80361 7.14163 5.79656 7.77073 5.92707 8.37832C5.16678 8.23555 4.38091 8.40064 3.74235 8.83729C3.10379 9.27394 2.66484 9.94637 2.52207 10.7067C2.37929 11.4669 2.54439 12.2528 2.98104 12.8914C3.41768 13.5299 4.09011 13.9689 4.8504 14.1117L5.0004 14.1367V15.815C3.92994 15.7186 2.9274 15.2491 2.16801 14.4885C1.40862 13.7279 0.940673 12.7246 0.845962 11.654C0.751251 10.5834 1.0358 9.51356 1.64987 8.63147C2.26395 7.74938 3.16849 7.11115 4.2054 6.82832C4.37016 5.40697 5.05157 4.09575 6.12005 3.14404C7.18853 2.19234 8.56953 1.66654 10.0004 1.66666Z" fill="#1890FF"/>
</g>
<defs>
<clipPath id="clip0_278_1851">
<rect width="20" height="20" fill="white"/>
</clipPath>
</defs>
</svg>
