<svg width="20" height="20" viewBox="0 0 20 20" fill="none" xmlns="http://www.w3.org/2000/svg">
<g clip-path="url(#clip0_9_780)">
<path d="M16.6667 1.66666C17.1267 1.66666 17.5 2.03999 17.5 2.49999V5.63082L15.8333 7.29749V3.33332H4.16667V16.6667H15.8333V14.3683L17.5 12.7017V17.5C17.5 17.96 17.1267 18.3333 16.6667 18.3333H3.33333C2.87333 18.3333 2.5 17.96 2.5 17.5V2.49999C2.5 2.03999 2.87333 1.66666 3.33333 1.66666H16.6667ZM18.1483 7.33999L19.3267 8.51832L12.845 15L11.665 14.9983L11.6667 13.8217L18.1483 7.33999ZM10.8333 9.99999V11.6667H6.66667V9.99999H10.8333ZM13.3333 6.66666V8.33332H6.66667V6.66666H13.3333Z" fill="#BBC3CD"/>
</g>
<defs>
<clipPath id="clip0_9_780">
<rect width="20" height="20" fill="white"/>
</clipPath>
</defs>
</svg>
