<svg width="29" height="29" viewBox="0 0 29 29" fill="none" xmlns="http://www.w3.org/2000/svg">
<path d="M0.666656 28.3333C0.666656 25.5044 1.79046 22.7913 3.79085 20.7909C5.79124 18.7905 8.50435 17.6667 11.3333 17.6667C14.1623 17.6667 16.8754 18.7905 18.8758 20.7909C20.8762 22.7913 22 25.5044 22 28.3333H0.666656ZM11.3333 16.3333C6.91332 16.3333 3.33332 12.7533 3.33332 8.33334C3.33332 3.91334 6.91332 0.333344 11.3333 0.333344C15.7533 0.333344 19.3333 3.91334 19.3333 8.33334C19.3333 12.7533 15.7533 16.3333 11.3333 16.3333ZM21.1507 19.3107C23.1902 19.8349 25.0124 20.9891 26.3578 22.6091C27.7032 24.2291 28.5032 26.2322 28.644 28.3333H24.6667C24.6667 24.8533 23.3333 21.6853 21.1507 19.3107ZM18.4533 16.276C19.5707 15.2766 20.4642 14.0525 21.0754 12.6837C21.6866 11.3149 22.0017 9.83239 22 8.33334C22.0028 6.5113 21.5368 4.71917 20.6467 3.12934C22.1568 3.4328 23.5153 4.24984 24.4913 5.44161C25.4672 6.63337 26.0003 8.12631 26 9.66668C26.0004 10.6166 25.7976 11.5557 25.4055 12.4209C25.0133 13.2861 24.4407 14.0575 23.7261 14.6834C23.0114 15.3093 22.1713 15.7752 21.2619 16.0498C20.3525 16.3245 19.3949 16.4016 18.4533 16.276Z" fill="white"/>
</svg>
