<svg width="18" height="18" viewBox="0 0 18 18" fill="none" xmlns="http://www.w3.org/2000/svg">
<path d="M8.99935 17.3333C4.39685 17.3333 0.666016 13.6025 0.666016 9C0.666016 4.3975 4.39685 0.666667 8.99935 0.666667C13.6018 0.666667 17.3327 4.3975 17.3327 9C17.3327 13.6025 13.6018 17.3333 8.99935 17.3333ZM8.99935 15.6667C10.7675 15.6667 12.4632 14.9643 13.7134 13.714C14.9636 12.4638 15.666 10.7681 15.666 9C15.666 7.23189 14.9636 5.5362 13.7134 4.28596C12.4632 3.03571 10.7675 2.33333 8.99935 2.33333C7.23124 2.33333 5.53555 3.03571 4.2853 4.28596C3.03506 5.5362 2.33268 7.23189 2.33268 9C2.33268 10.7681 3.03506 12.4638 4.2853 13.714C5.53555 14.9643 7.23124 15.6667 8.99935 15.6667ZM4.83268 8.16667H13.166V9.83333H4.83268V8.16667Z" fill="#F5222D"/>
</svg>
