<svg width="18" height="18" viewBox="0 0 18 18" fill="none" xmlns="http://www.w3.org/2000/svg">
<path d="M0.843806 10.7166C0.604148 9.58465 0.604148 8.41511 0.843806 7.28322C1.76881 7.39155 2.57714 7.08572 2.84047 6.44905C3.10464 5.81155 2.75047 5.02405 2.01881 4.44655C2.64967 3.47682 3.47658 2.64992 4.44631 2.01905C5.02297 2.74988 5.81131 3.10488 6.44881 2.84072C7.08631 2.57655 7.39214 1.76905 7.28297 0.84405C8.41487 0.604392 9.58441 0.604392 10.7163 0.84405C10.608 1.76905 10.9138 2.57738 11.5505 2.84072C12.188 3.10488 12.9755 2.75072 13.553 2.01905C14.5227 2.64992 15.3496 3.47682 15.9805 4.44655C15.2496 5.02322 14.8946 5.81155 15.1588 6.44905C15.423 7.08655 16.2305 7.39238 17.1555 7.28322C17.3951 8.41511 17.3951 9.58465 17.1555 10.7166C16.2305 10.6082 15.4221 10.9141 15.1588 11.5507C14.8946 12.1882 15.2488 12.9757 15.9805 13.5532C15.3496 14.5229 14.5227 15.3499 13.553 15.9807C12.9763 15.2499 12.188 14.8949 11.5505 15.1591C10.913 15.4232 10.6071 16.2307 10.7163 17.1557C9.58441 17.3954 8.41487 17.3954 7.28297 17.1557C7.39131 16.2307 7.08547 15.4224 6.44881 15.1591C5.81131 14.8949 5.02381 15.2491 4.44631 15.9807C3.47658 15.3499 2.64967 14.5229 2.01881 13.5532C2.74964 12.9766 3.10464 12.1882 2.84047 11.5507C2.57631 10.9132 1.76881 10.6074 0.843806 10.7166ZM2.33297 9.17488C3.24964 9.42905 4.00547 10.0099 4.38047 10.9132C4.75464 11.8174 4.63047 12.7632 4.16214 13.5899C4.24214 13.6749 4.32464 13.7574 4.40964 13.8374C5.23714 13.3691 6.18214 13.2457 7.08631 13.6191C7.98964 13.9941 8.57047 14.7499 8.82464 15.6666C8.94131 15.6699 9.05797 15.6699 9.17464 15.6666C9.42881 14.7499 10.0096 13.9941 10.913 13.6191C11.8171 13.2449 12.763 13.3691 13.5896 13.8374C13.6746 13.7574 13.7571 13.6749 13.8371 13.5899C13.3688 12.7624 13.2455 11.8174 13.6188 10.9132C13.9938 10.0099 14.7496 9.42905 15.6663 9.17488C15.6696 9.05822 15.6696 8.94155 15.6663 8.82488C14.7496 8.57072 13.9938 7.98988 13.6188 7.08655C13.2446 6.18238 13.3688 5.23655 13.8371 4.40988C13.7568 4.32521 13.6743 4.24269 13.5896 4.16238C12.7621 4.63072 11.8171 4.75405 10.913 4.38072C10.0096 4.00572 9.42881 3.24988 9.17464 2.33322C9.05799 2.33013 8.94129 2.33013 8.82464 2.33322C8.57047 3.24988 7.98964 4.00572 7.08631 4.38072C6.18214 4.75488 5.23631 4.63072 4.40964 4.16238C4.32464 4.24238 4.24214 4.32488 4.16214 4.40988C4.63047 5.23738 4.75381 6.18238 4.38047 7.08655C4.00547 7.98988 3.24964 8.57072 2.33297 8.82488C2.32964 8.94155 2.32964 9.05822 2.33297 9.17488ZM8.99964 11.4999C8.3366 11.4999 7.70071 11.2365 7.23187 10.7677C6.76303 10.2988 6.49964 9.66292 6.49964 8.99988C6.49964 8.33684 6.76303 7.70096 7.23187 7.23212C7.70071 6.76328 8.3366 6.49988 8.99964 6.49988C9.66268 6.49988 10.2986 6.76328 10.7674 7.23212C11.2362 7.70096 11.4996 8.33684 11.4996 8.99988C11.4996 9.66292 11.2362 10.2988 10.7674 10.7677C10.2986 11.2365 9.66268 11.4999 8.99964 11.4999ZM8.99964 9.83322C9.22065 9.83322 9.43262 9.74542 9.58889 9.58914C9.74518 9.43286 9.83297 9.2209 9.83297 8.99988C9.83297 8.77887 9.74518 8.56691 9.58889 8.41063C9.43262 8.25435 9.22065 8.16655 8.99964 8.16655C8.77863 8.16655 8.56666 8.25435 8.41038 8.41063C8.2541 8.56691 8.16631 8.77887 8.16631 8.99988C8.16631 9.2209 8.2541 9.43286 8.41038 9.58914C8.56666 9.74542 8.77863 9.83322 8.99964 9.83322Z" fill="#BBC3CD"/>
</svg>
