<svg width="20" height="20" viewBox="0 0 20 20" fill="none" xmlns="http://www.w3.org/2000/svg">
<path fill-rule="evenodd" clip-rule="evenodd" d="M10.3913 2.21738C10.145 2.09421 9.85503 2.09421 9.60869 2.21738L1.60869 6.21738C1.31225 6.36559 1.125 6.66857 1.125 7C1.125 7.33143 1.31225 7.63441 1.60869 7.78262L4.125 9.04078V14.1429C4.125 15.3392 4.94895 16.3049 6.03034 16.9229C7.12724 17.5497 8.5561 17.875 10 17.875C11.4439 17.875 12.8728 17.5497 13.9697 16.9229C15.051 16.3049 15.875 15.3392 15.875 14.1429V9.04078L17.125 8.41578V13.875H18.875V7C18.875 6.66857 18.6877 6.36559 18.3913 6.21738L10.3913 2.21738ZM14.125 9.91578L10.3913 11.7826C10.145 11.9058 9.85503 11.9058 9.60869 11.7826L5.875 9.91578V14.1429C5.875 14.462 6.10461 14.9498 6.89859 15.4035C7.67706 15.8483 8.79174 16.125 10 16.125C11.2083 16.125 12.3229 15.8483 13.1014 15.4035C13.8954 14.9498 14.125 14.462 14.125 14.1429V9.91578ZM10 3.97828L16.0434 7L10 10.0217L3.95656 7L10 3.97828Z" fill="#929FAF"/>
</svg>
