<svg width="28" height="28" viewBox="0 0 28 28" fill="none" xmlns="http://www.w3.org/2000/svg">
<path d="M14 12.6667C15.7681 12.6667 17.4638 13.369 18.7141 14.6193C19.9643 15.8695 20.6667 17.5652 20.6667 19.3333V27.3333H7.33335V19.3333C7.33335 17.5652 8.03573 15.8695 9.28597 14.6193C10.5362 13.369 12.2319 12.6667 14 12.6667ZM5.05069 16.6747C4.8385 17.3904 4.71315 18.129 4.67735 18.8747L4.66669 19.3333V27.3333H0.666687V21.3333C0.666425 20.1834 1.09072 19.0739 1.8582 18.2176C2.62567 17.3613 3.68228 16.8185 4.82535 16.6933L5.05069 16.6747ZM22.9494 16.6747C24.1359 16.747 25.2502 17.2693 26.0648 18.135C26.8795 19.0007 27.3332 20.1446 27.3334 21.3333V27.3333H23.3334V19.3333C23.3334 18.4093 23.2 17.5173 22.9494 16.6747ZM5.33335 8.66666C6.21741 8.66666 7.06525 9.01785 7.69038 9.64297C8.3155 10.2681 8.66669 11.1159 8.66669 12C8.66669 12.884 8.3155 13.7319 7.69038 14.357C7.06525 14.9821 6.21741 15.3333 5.33335 15.3333C4.4493 15.3333 3.60145 14.9821 2.97633 14.357C2.35121 13.7319 2.00002 12.884 2.00002 12C2.00002 11.1159 2.35121 10.2681 2.97633 9.64297C3.60145 9.01785 4.4493 8.66666 5.33335 8.66666ZM22.6667 8.66666C23.5507 8.66666 24.3986 9.01785 25.0237 9.64297C25.6488 10.2681 26 11.1159 26 12C26 12.884 25.6488 13.7319 25.0237 14.357C24.3986 14.9821 23.5507 15.3333 22.6667 15.3333C21.7826 15.3333 20.9348 14.9821 20.3097 14.357C19.6845 13.7319 19.3334 12.884 19.3334 12C19.3334 11.1159 19.6845 10.2681 20.3097 9.64297C20.9348 9.01785 21.7826 8.66666 22.6667 8.66666ZM14 0.666656C15.4145 0.666656 16.7711 1.22856 17.7713 2.22875C18.7715 3.22895 19.3334 4.5855 19.3334 5.99999C19.3334 7.41448 18.7715 8.77103 17.7713 9.77123C16.7711 10.7714 15.4145 11.3333 14 11.3333C12.5855 11.3333 11.229 10.7714 10.2288 9.77123C9.22859 8.77103 8.66669 7.41448 8.66669 5.99999C8.66669 4.5855 9.22859 3.22895 10.2288 2.22875C11.229 1.22856 12.5855 0.666656 14 0.666656Z" fill="white"/>
</svg>
