<svg width="46" height="45" viewBox="0 0 46 45" fill="none" xmlns="http://www.w3.org/2000/svg">
<path d="M19.9062 19.0348C19.1808 18.316 18.7734 17.3423 18.7734 16.3272C18.7734 15.3121 19.1808 14.3384 19.9062 13.6197L26.1802 7.42019C26.5368 7.05027 26.9646 6.75456 27.4385 6.55047C27.9124 6.34638 28.4229 6.23804 28.9398 6.23181C29.4568 6.22558 29.9698 6.3216 30.4486 6.51421C30.9274 6.70682 31.3624 6.99213 31.728 7.35335C32.0936 7.71457 32.3823 8.14441 32.5772 8.61755C32.7721 9.09069 32.8693 9.59758 32.863 10.1084C32.8567 10.6192 32.7471 11.1236 32.5405 11.5919C32.334 12.0602 32.0347 12.4829 31.6603 12.8353L25.3863 19.0348C24.659 19.7516 23.6736 20.1541 22.6463 20.1541C21.619 20.1541 20.6336 19.7516 19.9062 19.0348Z" fill="#0076BD"/>
<path d="M13.5998 12.8032C12.8744 12.0845 12.467 11.1108 12.467 10.0957C12.467 9.0806 12.8744 8.10693 13.5998 7.38818L19.8738 1.18867C20.2304 0.81875 20.6582 0.523042 21.1321 0.318951C21.606 0.114861 22.1165 0.00651314 22.6334 0.00028472C23.1504 -0.0059437 23.6634 0.0900733 24.1422 0.282684C24.621 0.475295 25.056 0.760608 25.4216 1.12183C25.7872 1.48305 26.0759 1.91288 26.2708 2.38602C26.4657 2.85917 26.5629 3.36606 26.5566 3.87686C26.5503 4.38767 26.4407 4.89207 26.2341 5.36037C26.0276 5.82868 25.7283 6.25143 25.3539 6.60373L19.0799 12.8032C18.3526 13.5201 17.3672 13.9226 16.3399 13.9226C15.3126 13.9226 14.3272 13.5201 13.5998 12.8032Z" fill="#0076BD"/>
<path d="M19.8455 43.6927C19.4854 43.3377 19.1998 42.916 19.0049 42.4517C18.81 41.9875 18.7096 41.4898 18.7096 40.9872C18.7096 40.4846 18.81 39.9869 19.0049 39.5226C19.1998 39.0584 19.4854 38.6367 19.8455 38.2816L26.1195 32.0621C26.4754 31.6913 26.9029 31.3946 27.3768 31.1897C27.8507 30.9848 28.3613 30.8758 28.8785 30.8692C29.3957 30.8625 29.909 30.9583 30.3881 31.1509C30.8673 31.3434 31.3025 31.6289 31.6681 31.9905C32.0337 32.352 32.3223 32.7823 32.5169 33.2559C32.7114 33.7295 32.808 34.2367 32.8008 34.7478C32.7937 35.2589 32.683 35.7633 32.4753 36.2314C32.2676 36.6995 31.9671 37.1218 31.5915 37.4732L25.3215 43.6927C24.9622 44.0485 24.5355 44.3307 24.0656 44.5233C23.5958 44.7159 23.0922 44.815 22.5835 44.815C22.0748 44.815 21.5712 44.7159 21.1014 44.5233C20.6315 44.3307 20.2048 44.0485 19.8455 43.6927Z" fill="#0076BD"/>
<path d="M13.5715 37.4732C13.2114 37.1182 12.9258 36.6964 12.7309 36.2322C12.536 35.7679 12.4356 35.2703 12.4356 34.7677C12.4356 34.265 12.536 33.7674 12.7309 33.3031C12.9258 32.8389 13.2114 32.4172 13.5715 32.0621L19.8455 25.8626C20.5732 25.1451 21.5597 24.7426 22.5878 24.7437C23.6159 24.7448 24.6014 25.1495 25.3276 25.8686C26.0538 26.5878 26.4611 27.5625 26.46 28.5784C26.4588 29.5943 26.0493 30.5681 25.3215 31.2857L19.0354 37.4732C18.3102 38.1881 17.3277 38.5895 16.3034 38.5895C15.2791 38.5895 14.2966 38.1881 13.5715 37.4732Z" fill="#0076BD"/>
<path d="M1.13282 19.7712C1.86021 19.0544 2.84558 18.6518 3.87289 18.6518C4.90019 18.6518 5.88557 19.0544 6.61295 19.7712L12.887 25.9707C13.5846 26.6946 13.9683 27.6593 13.956 28.6589C13.9436 29.6584 13.5363 30.6137 12.8209 31.3205C12.1056 32.0274 11.1389 32.4299 10.1273 32.4421C9.11573 32.4542 8.1394 32.0752 7.40682 31.3857L1.13282 25.1862C0.407384 24.4675 0 23.4938 0 22.4787C0 21.4636 0.407384 20.4899 1.13282 19.7712Z" fill="#0076BD"/>
<path d="M7.37442 13.5397C8.1018 12.8228 9.08718 12.4203 10.1145 12.4203C11.1418 12.4203 12.1272 12.8228 12.8545 13.5397L19.1285 19.7392C19.8262 20.463 20.2099 21.4278 20.1976 22.4273C20.1852 23.4269 19.7779 24.3821 19.0625 25.089C18.3472 25.7958 17.3805 26.1983 16.3689 26.2105C15.3573 26.2227 14.381 25.8436 13.6484 25.1542L7.37442 18.9547C6.64898 18.236 6.2416 17.2623 6.2416 16.2472C6.2416 15.2321 6.64898 14.2584 7.37442 13.5397Z" fill="#0076BD"/>
<path d="M44.0949 25.1222C43.7356 25.478 43.3089 25.7602 42.839 25.9528C42.3692 26.1454 41.8655 26.2445 41.3569 26.2445C40.8482 26.2445 40.3446 26.1454 39.8748 25.9528C39.4049 25.7602 38.9781 25.478 38.6189 25.1222L32.3449 18.9227C31.6187 18.2051 31.2107 17.2319 31.2107 16.2172C31.2107 15.2024 31.6187 14.2292 32.3449 13.5116C33.071 12.7941 34.0559 12.391 35.0829 12.391C36.1099 12.391 37.0948 12.7941 37.8209 13.5116L44.0949 19.7111C44.455 20.0662 44.7406 20.4879 44.9355 20.9521C45.1304 21.4164 45.2308 21.9141 45.2308 22.4167C45.2308 22.9193 45.1304 23.417 44.9355 23.8812C44.7406 24.3455 44.455 24.7672 44.0949 25.1222Z" fill="#0076BD"/>
<path d="M37.8209 31.3217C37.4616 31.6775 37.0349 31.9597 36.565 32.1523C36.0952 32.3449 35.5915 32.444 35.0829 32.444C34.5742 32.444 34.0706 32.3449 33.6008 32.1523C33.1309 31.9597 32.7041 31.6775 32.3449 31.3217L26.0709 25.1222C25.7113 24.7669 25.4261 24.3451 25.2315 23.8809C25.0369 23.4167 24.9367 22.9191 24.9367 22.4167C24.9367 21.9142 25.0369 21.4167 25.2315 20.9525C25.4261 20.4882 25.7113 20.0664 26.0709 19.7111C26.4304 19.3558 26.8573 19.074 27.3271 18.8817C27.7969 18.6894 28.3004 18.5905 28.8089 18.5905C29.3174 18.5905 29.8209 18.6894 30.2907 18.8817C30.7605 19.074 31.1874 19.3558 31.5469 19.7111L37.8209 25.9106C38.181 26.2657 38.4666 26.6874 38.6615 27.1516C38.8564 27.6159 38.9568 28.1136 38.9568 28.6162C38.9568 29.1188 38.8564 29.6165 38.6615 30.0807C38.4666 30.545 38.181 30.9667 37.8209 31.3217Z" fill="#0076BD"/>
</svg>
