<svg width="164" height="45" viewBox="0 0 164 45" fill="none" xmlns="http://www.w3.org/2000/svg">
<path d="M19.9062 19.0348C19.1808 18.316 18.7734 17.3423 18.7734 16.3272C18.7734 15.3121 19.1808 14.3384 19.9062 13.6197L26.1802 7.42019C26.5368 7.05027 26.9646 6.75456 27.4385 6.55047C27.9124 6.34638 28.4229 6.23804 28.9398 6.23181C29.4568 6.22558 29.9698 6.3216 30.4486 6.51421C30.9274 6.70682 31.3624 6.99213 31.728 7.35335C32.0936 7.71457 32.3823 8.14441 32.5772 8.61755C32.7721 9.09069 32.8693 9.59758 32.863 10.1084C32.8567 10.6192 32.7471 11.1236 32.5405 11.5919C32.334 12.0602 32.0347 12.4829 31.6603 12.8353L25.3863 19.0348C24.659 19.7516 23.6736 20.1541 22.6463 20.1541C21.619 20.1541 20.6336 19.7516 19.9062 19.0348Z" fill="#0076BD"/>
<path d="M13.5998 12.8032C12.8744 12.0845 12.467 11.1108 12.467 10.0957C12.467 9.0806 12.8744 8.10693 13.5998 7.38818L19.8738 1.18867C20.2304 0.81875 20.6582 0.523042 21.1321 0.318951C21.606 0.114861 22.1165 0.00651314 22.6334 0.00028472C23.1504 -0.0059437 23.6634 0.0900733 24.1422 0.282684C24.621 0.475295 25.056 0.760608 25.4216 1.12183C25.7872 1.48305 26.0759 1.91288 26.2708 2.38602C26.4657 2.85917 26.5629 3.36606 26.5566 3.87686C26.5503 4.38767 26.4407 4.89207 26.2341 5.36037C26.0276 5.82868 25.7283 6.25143 25.3539 6.60373L19.0799 12.8032C18.3526 13.5201 17.3672 13.9226 16.3399 13.9226C15.3126 13.9226 14.3272 13.5201 13.5998 12.8032Z" fill="#0076BD"/>
<path d="M19.8455 43.6927C19.4854 43.3377 19.1998 42.916 19.0049 42.4517C18.81 41.9875 18.7096 41.4898 18.7096 40.9872C18.7096 40.4846 18.81 39.9869 19.0049 39.5226C19.1998 39.0584 19.4854 38.6367 19.8455 38.2816L26.1195 32.0621C26.4754 31.6913 26.9029 31.3946 27.3768 31.1897C27.8507 30.9848 28.3613 30.8758 28.8785 30.8692C29.3957 30.8625 29.909 30.9583 30.3881 31.1509C30.8673 31.3434 31.3025 31.6289 31.6681 31.9905C32.0337 32.352 32.3223 32.7823 32.5169 33.2559C32.7114 33.7295 32.808 34.2367 32.8008 34.7478C32.7937 35.2589 32.683 35.7633 32.4753 36.2314C32.2676 36.6995 31.9671 37.1218 31.5915 37.4732L25.3215 43.6927C24.9622 44.0485 24.5355 44.3307 24.0656 44.5233C23.5958 44.7159 23.0922 44.815 22.5835 44.815C22.0748 44.815 21.5712 44.7159 21.1014 44.5233C20.6315 44.3307 20.2048 44.0485 19.8455 43.6927Z" fill="#0076BD"/>
<path d="M13.5715 37.4732C13.2114 37.1182 12.9258 36.6964 12.7309 36.2322C12.536 35.7679 12.4356 35.2703 12.4356 34.7677C12.4356 34.265 12.536 33.7674 12.7309 33.3031C12.9258 32.8389 13.2114 32.4172 13.5715 32.0621L19.8455 25.8626C20.5732 25.1451 21.5597 24.7426 22.5878 24.7437C23.6159 24.7448 24.6014 25.1495 25.3276 25.8686C26.0538 26.5878 26.4611 27.5625 26.46 28.5784C26.4588 29.5943 26.0493 30.5681 25.3215 31.2857L19.0354 37.4732C18.3102 38.1881 17.3277 38.5895 16.3034 38.5895C15.2791 38.5895 14.2966 38.1881 13.5715 37.4732Z" fill="#0076BD"/>
<path d="M1.13282 19.7712C1.86021 19.0544 2.84558 18.6518 3.87289 18.6518C4.90019 18.6518 5.88557 19.0544 6.61295 19.7712L12.887 25.9707C13.5846 26.6946 13.9683 27.6593 13.956 28.6589C13.9436 29.6584 13.5363 30.6137 12.8209 31.3205C12.1056 32.0274 11.1389 32.4299 10.1273 32.4421C9.11573 32.4542 8.1394 32.0752 7.40682 31.3857L1.13282 25.1862C0.407384 24.4675 0 23.4938 0 22.4787C0 21.4636 0.407384 20.4899 1.13282 19.7712Z" fill="#0076BD"/>
<path d="M7.37442 13.5397C8.1018 12.8228 9.08718 12.4203 10.1145 12.4203C11.1418 12.4203 12.1272 12.8228 12.8545 13.5397L19.1285 19.7392C19.8262 20.463 20.2099 21.4278 20.1976 22.4273C20.1852 23.4269 19.7779 24.3821 19.0625 25.089C18.3472 25.7958 17.3805 26.1983 16.3689 26.2105C15.3573 26.2227 14.381 25.8436 13.6484 25.1542L7.37442 18.9547C6.64898 18.236 6.2416 17.2623 6.2416 16.2472C6.2416 15.2321 6.64898 14.2584 7.37442 13.5397Z" fill="#0076BD"/>
<path d="M44.0949 25.1222C43.7356 25.478 43.3089 25.7602 42.839 25.9528C42.3692 26.1454 41.8655 26.2445 41.3569 26.2445C40.8482 26.2445 40.3446 26.1454 39.8748 25.9528C39.4049 25.7602 38.9781 25.478 38.6189 25.1222L32.3449 18.9227C31.6187 18.2051 31.2107 17.2319 31.2107 16.2172C31.2107 15.2024 31.6187 14.2292 32.3449 13.5116C33.071 12.7941 34.0559 12.391 35.0829 12.391C36.1099 12.391 37.0948 12.7941 37.8209 13.5116L44.0949 19.7111C44.455 20.0662 44.7406 20.4879 44.9355 20.9521C45.1304 21.4164 45.2308 21.9141 45.2308 22.4167C45.2308 22.9193 45.1304 23.417 44.9355 23.8812C44.7406 24.3455 44.455 24.7672 44.0949 25.1222Z" fill="#0076BD"/>
<path d="M37.8209 31.3217C37.4616 31.6775 37.0349 31.9597 36.565 32.1523C36.0952 32.3449 35.5915 32.444 35.0829 32.444C34.5742 32.444 34.0706 32.3449 33.6008 32.1523C33.1309 31.9597 32.7041 31.6775 32.3449 31.3217L26.0709 25.1222C25.7113 24.7669 25.4261 24.3451 25.2315 23.8809C25.0369 23.4167 24.9367 22.9191 24.9367 22.4167C24.9367 21.9142 25.0369 21.4167 25.2315 20.9525C25.4261 20.4882 25.7113 20.0664 26.0709 19.7111C26.4304 19.3558 26.8573 19.074 27.3271 18.8817C27.7969 18.6894 28.3004 18.5905 28.8089 18.5905C29.3174 18.5905 29.8209 18.6894 30.2907 18.8817C30.7605 19.074 31.1874 19.3558 31.5469 19.7111L37.8209 25.9106C38.181 26.2657 38.4666 26.6874 38.6615 27.1516C38.8564 27.6159 38.9568 28.1136 38.9568 28.6162C38.9568 29.1188 38.8564 29.6165 38.6615 30.0807C38.4666 30.545 38.181 30.9667 37.8209 31.3217Z" fill="#0076BD"/>
<path d="M75.4884 6.66426L71.6554 21.1944H67.3196L64.9737 11.6318L62.544 21.1944H58.2082L54.4799 6.66426H58.313L60.4285 17.241L63.0467 6.66426H66.9845L69.498 17.241L71.6344 6.66426H75.4884Z" fill="#0076BD"/>
<path d="M88.9305 15.2333C88.9305 15.5645 88.9096 15.9094 88.8677 16.2682H80.7617C80.8176 16.9857 81.048 17.5377 81.4529 17.9241C81.8718 18.2966 82.3815 18.4829 82.9819 18.4829C83.8756 18.4829 84.497 18.1103 84.8461 17.3652H88.6582C88.4627 18.1241 88.1067 18.8072 87.59 19.4143C87.0873 20.0215 86.4519 20.4975 85.6839 20.8425C84.9159 21.1875 84.0572 21.36 83.1076 21.36C81.9626 21.36 80.9432 21.1185 80.0495 20.6355C79.1559 20.1526 78.4577 19.4626 77.955 18.5657C77.4523 17.6688 77.2009 16.6201 77.2009 15.4196C77.2009 14.2191 77.4453 13.1704 77.934 12.2735C78.4367 11.3765 79.1349 10.6866 80.0286 10.2036C80.9223 9.72069 81.9486 9.47921 83.1076 9.47921C84.2387 9.47921 85.2441 9.71379 86.1238 10.1829C87.0035 10.6521 87.6877 11.3213 88.1765 12.1907C88.6792 13.06 88.9305 14.0742 88.9305 15.2333ZM85.265 14.3019C85.265 13.6947 85.0556 13.2118 84.6367 12.853C84.2177 12.4942 83.6941 12.3149 83.0657 12.3149C82.4653 12.3149 81.9556 12.4873 81.5367 12.8323C81.1317 13.1773 80.8804 13.6671 80.7826 14.3019H85.265Z" fill="#0076BD"/>
<path d="M95.0302 11.28C95.3653 10.7418 95.847 10.3071 96.4754 9.97597C97.1038 9.6448 97.8229 9.47921 98.6328 9.47921C99.5963 9.47921 100.469 9.72069 101.251 10.2036C102.033 10.6866 102.647 11.3765 103.094 12.2735C103.555 13.1704 103.785 14.2122 103.785 15.3989C103.785 16.5856 103.555 17.6343 103.094 18.545C102.647 19.4419 102.033 20.1388 101.251 20.6355C100.469 21.1185 99.5963 21.36 98.6328 21.36C97.809 21.36 97.0898 21.2013 96.4754 20.8839C95.861 20.5527 95.3793 20.1181 95.0302 19.5799V21.1944H91.4484V5.87773H95.0302V11.28ZM100.141 15.3989C100.141 14.5158 99.8896 13.8258 99.3869 13.3291C98.8981 12.8185 98.2907 12.5632 97.5646 12.5632C96.8524 12.5632 96.245 12.8185 95.7423 13.3291C95.2536 13.8396 95.0092 14.5365 95.0092 15.4196C95.0092 16.3027 95.2536 16.9995 95.7423 17.5101C96.245 18.0207 96.8524 18.2759 97.5646 18.2759C98.2767 18.2759 98.8842 18.0207 99.3869 17.5101C99.8896 16.9857 100.141 16.282 100.141 15.3989Z" fill="#0076BD"/>
<path d="M109.875 11.28C110.21 10.7418 110.692 10.3071 111.32 9.97597C111.948 9.6448 112.667 9.47921 113.477 9.47921C114.441 9.47921 115.314 9.72069 116.096 10.2036C116.877 10.6866 117.492 11.3765 117.939 12.2735C118.4 13.1704 118.63 14.2122 118.63 15.3989C118.63 16.5856 118.4 17.6343 117.939 18.545C117.492 19.4419 116.877 20.1388 116.096 20.6355C115.314 21.1185 114.441 21.36 113.477 21.36C112.653 21.36 111.934 21.2013 111.32 20.8839C110.705 20.5527 110.224 20.1181 109.875 19.5799V21.1944H106.293V5.87773H109.875V11.28ZM114.985 15.3989C114.985 14.5158 114.734 13.8258 114.231 13.3291C113.743 12.8185 113.135 12.5632 112.409 12.5632C111.697 12.5632 111.089 12.8185 110.587 13.3291C110.098 13.8396 109.854 14.5365 109.854 15.4196C109.854 16.3027 110.098 16.9995 110.587 17.5101C111.089 18.0207 111.697 18.2759 112.409 18.2759C113.121 18.2759 113.729 18.0207 114.231 17.5101C114.734 16.9857 114.985 16.282 114.985 15.3989Z" fill="#0076BD"/>
<path d="M124.719 11.5697C125.138 10.935 125.662 10.4382 126.29 10.0795C126.918 9.70689 127.617 9.52061 128.385 9.52061V13.267H127.4C126.506 13.267 125.836 13.4602 125.389 13.8465C124.943 14.2191 124.719 14.8814 124.719 15.8335V21.1944H121.137V9.6448H124.719V11.5697Z" fill="#0076BD"/>
<path d="M130.013 15.3989C130.013 14.2122 130.236 13.1704 130.683 12.2735C131.144 11.3765 131.765 10.6866 132.547 10.2036C133.329 9.72069 134.202 9.47921 135.165 9.47921C135.989 9.47921 136.708 9.6448 137.323 9.97597C137.951 10.3071 138.433 10.7418 138.768 11.28V9.6448H142.35V21.1944H138.768V19.5592C138.419 20.0974 137.93 20.532 137.302 20.8632C136.688 21.1944 135.968 21.36 135.145 21.36C134.195 21.36 133.329 21.1185 132.547 20.6355C131.765 20.1388 131.144 19.4419 130.683 18.545C130.236 17.6343 130.013 16.5856 130.013 15.3989ZM138.768 15.4196C138.768 14.5365 138.517 13.8396 138.014 13.3291C137.525 12.8185 136.925 12.5632 136.213 12.5632C135.501 12.5632 134.893 12.8185 134.39 13.3291C133.902 13.8258 133.657 14.5158 133.657 15.3989C133.657 16.282 133.902 16.9857 134.39 17.5101C134.893 18.0207 135.501 18.2759 136.213 18.2759C136.925 18.2759 137.525 18.0207 138.014 17.5101C138.517 16.9995 138.768 16.3027 138.768 15.4196Z" fill="#0076BD"/>
<path d="M147.371 8.4443C146.742 8.4443 146.226 8.26492 145.821 7.90615C145.43 7.53358 145.234 7.07822 145.234 6.54007C145.234 5.98812 145.43 5.53276 145.821 5.17399C146.226 4.80143 146.742 4.61514 147.371 4.61514C147.985 4.61514 148.488 4.80143 148.879 5.17399C149.284 5.53276 149.486 5.98812 149.486 6.54007C149.486 7.07822 149.284 7.53358 148.879 7.90615C148.488 8.26492 147.985 8.4443 147.371 8.4443ZM149.151 9.6448V21.1944H145.569V9.6448H149.151Z" fill="#0076BD"/>
<path d="M159.497 9.52061C160.865 9.52061 161.954 9.96217 162.764 10.8453C163.588 11.7146 164 12.9151 164 14.4468V21.1944H160.439V14.9228C160.439 14.1501 160.237 13.5498 159.832 13.1221C159.427 12.6943 158.882 12.4804 158.198 12.4804C157.514 12.4804 156.969 12.6943 156.564 13.1221C156.159 13.5498 155.957 14.1501 155.957 14.9228V21.1944H152.375V9.6448H155.957V11.1765C156.32 10.6659 156.809 10.2657 157.423 9.97597C158.037 9.67239 158.729 9.52061 159.497 9.52061Z" fill="#0076BD"/>
<path d="M62.2354 38.3597H57.359L56.5211 40.7112H54.527L58.6996 29.1859H60.9115L65.0841 40.7112H63.0732L62.2354 38.3597ZM61.6992 36.8197L59.8056 31.4711L57.8952 36.8197H61.6992Z" fill="#0076BD"/>
<path d="M66.7643 36.1408C66.7643 35.2024 66.9542 34.38 67.3341 33.6735C67.7251 32.9559 68.2613 32.4039 68.9428 32.0175C69.6242 31.6311 70.4062 31.438 71.2888 31.438C72.4059 31.438 73.3276 31.7029 74.0538 32.2328C74.7911 32.7517 75.2882 33.4968 75.5452 34.4683H73.484C73.3164 34.0157 73.0483 33.6624 72.6796 33.4085C72.311 33.1546 71.8474 33.0276 71.2888 33.0276C70.5068 33.0276 69.8812 33.3036 69.412 33.8556C68.9539 34.3965 68.7249 35.1583 68.7249 36.1408C68.7249 37.1233 68.9539 37.8906 69.412 38.4425C69.8812 38.9945 70.5068 39.2705 71.2888 39.2705C72.3948 39.2705 73.1265 38.7903 73.484 37.8298H75.5452C75.277 38.7572 74.7743 39.4968 74.037 40.0488C73.2997 40.5897 72.3836 40.8602 71.2888 40.8602C70.4062 40.8602 69.6242 40.667 68.9428 40.2806C68.2613 39.8832 67.7251 39.3312 67.3341 38.6247C66.9542 37.9071 66.7643 37.0791 66.7643 36.1408Z" fill="#0076BD"/>
<path d="M77.3149 36.1077C77.3149 35.1914 77.5048 34.38 77.8846 33.6735C78.2756 32.9669 78.8007 32.4205 79.4598 32.0341C80.1301 31.6367 80.8674 31.438 81.6718 31.438C82.3979 31.438 83.0291 31.5815 83.5654 31.8685C84.1128 32.1445 84.5485 32.4922 84.8724 32.9117V31.587H86.7995V40.7112H84.8724V39.3533C84.5485 39.7838 84.1072 40.1426 83.5486 40.4296C82.99 40.7167 82.3533 40.8602 81.6383 40.8602C80.8451 40.8602 80.1189 40.6615 79.4598 40.264C78.8007 39.8556 78.2756 39.2926 77.8846 38.575C77.5048 37.8464 77.3149 37.0239 77.3149 36.1077ZM84.8724 36.1408C84.8724 35.5115 84.7384 34.9651 84.4703 34.5014C84.2133 34.0378 83.8726 33.6845 83.4481 33.4416C83.0236 33.1988 82.5655 33.0773 82.074 33.0773C81.5824 33.0773 81.1244 33.1988 80.6999 33.4416C80.2753 33.6735 79.929 34.0212 79.6609 34.4849C79.404 34.9375 79.2755 35.4784 79.2755 36.1077C79.2755 36.7369 79.404 37.2889 79.6609 37.7636C79.929 38.2383 80.2753 38.6026 80.6999 38.8565C81.1356 39.0994 81.5936 39.2208 82.074 39.2208C82.5655 39.2208 83.0236 39.0994 83.4481 38.8565C83.8726 38.6136 84.2133 38.2604 84.4703 37.7967C84.7384 37.322 84.8724 36.77 84.8724 36.1408Z" fill="#0076BD"/>
<path d="M89.1746 36.1077C89.1746 35.1914 89.3645 34.38 89.7444 33.6735C90.1354 32.9669 90.6605 32.4205 91.3196 32.0341C91.9899 31.6367 92.7328 31.438 93.5483 31.438C94.1516 31.438 94.7437 31.5704 95.3246 31.8354C95.9167 32.0893 96.3859 32.4315 96.7322 32.8621V28.4573H98.6593V40.7112H96.7322V39.3367C96.4194 39.7783 95.9837 40.1426 95.4251 40.4296C94.8777 40.7167 94.2465 40.8602 93.5315 40.8602C92.7272 40.8602 91.9899 40.6615 91.3196 40.264C90.6605 39.8556 90.1354 39.2926 89.7444 38.575C89.3645 37.8464 89.1746 37.0239 89.1746 36.1077ZM96.7322 36.1408C96.7322 35.5115 96.5981 34.9651 96.33 34.5014C96.0731 34.0378 95.7323 33.6845 95.3078 33.4416C94.8833 33.1988 94.4253 33.0773 93.9337 33.0773C93.4422 33.0773 92.9841 33.1988 92.5596 33.4416C92.1351 33.6735 91.7888 34.0212 91.5207 34.4849C91.2637 34.9375 91.1352 35.4784 91.1352 36.1077C91.1352 36.7369 91.2637 37.2889 91.5207 37.7636C91.7888 38.2383 92.1351 38.6026 92.5596 38.8565C92.9953 39.0994 93.4533 39.2208 93.9337 39.2208C94.4253 39.2208 94.8833 39.0994 95.3078 38.8565C95.7323 38.6136 96.0731 38.2604 96.33 37.7967C96.5981 37.322 96.7322 36.77 96.7322 36.1408Z" fill="#0076BD"/>
<path d="M110.134 35.9255C110.134 36.2677 110.111 36.5769 110.067 36.8528H103.012C103.068 37.5814 103.341 38.1665 103.833 38.6081C104.324 39.0497 104.928 39.2705 105.643 39.2705C106.67 39.2705 107.397 38.8455 107.821 37.9954H109.882C109.603 38.8344 109.095 39.5244 108.357 40.0653C107.631 40.5952 106.726 40.8602 105.643 40.8602C104.76 40.8602 103.967 40.667 103.263 40.2806C102.57 39.8832 102.023 39.3312 101.621 38.6247C101.23 37.9071 101.034 37.0791 101.034 36.1408C101.034 35.2024 101.224 34.38 101.604 33.6735C101.995 32.9559 102.537 32.4039 103.23 32.0175C103.933 31.6311 104.738 31.438 105.643 31.438C106.514 31.438 107.29 31.6256 107.972 32.001C108.653 32.3763 109.184 32.9062 109.564 33.5907C109.944 34.2641 110.134 35.0424 110.134 35.9255ZM108.139 35.3294C108.128 34.6339 107.877 34.0764 107.385 33.6569C106.894 33.2374 106.285 33.0276 105.559 33.0276C104.9 33.0276 104.336 33.2374 103.866 33.6569C103.397 34.0654 103.118 34.6229 103.028 35.3294H108.139Z" fill="#0076BD"/>
<path d="M123.693 31.438C124.42 31.438 125.068 31.587 125.637 31.8851C126.218 32.1831 126.671 32.6247 126.995 33.2098C127.33 33.7949 127.497 34.5014 127.497 35.3294V40.7112H125.604V35.6109C125.604 34.794 125.397 34.1702 124.984 33.7397C124.57 33.2981 124.006 33.0773 123.291 33.0773C122.576 33.0773 122.007 33.2981 121.582 33.7397C121.169 34.1702 120.962 34.794 120.962 35.6109V40.7112H119.068V35.6109C119.068 34.794 118.862 34.1702 118.448 33.7397C118.035 33.2981 117.471 33.0773 116.756 33.0773C116.041 33.0773 115.471 33.2981 115.047 33.7397C114.633 34.1702 114.427 34.794 114.427 35.6109V40.7112H112.516V31.587H114.427V32.6302C114.739 32.2549 115.136 31.9623 115.616 31.7526C116.097 31.5428 116.611 31.438 117.158 31.438C117.895 31.438 118.555 31.5925 119.135 31.9016C119.716 32.2107 120.163 32.6578 120.476 33.2429C120.755 32.6909 121.191 32.2549 121.783 31.9347C122.375 31.6035 123.012 31.438 123.693 31.438Z" fill="#0076BD"/>
<path d="M138.743 31.587L133.079 45H131.101L132.978 40.5621L129.342 31.587H131.47L134.067 38.5419L136.765 31.587H138.743Z" fill="#0076BD"/>
</svg>
