<svg width="20" height="20" viewBox="0 0 20 20" fill="none" xmlns="http://www.w3.org/2000/svg">
<g clip-path="url(#clip0_20_176)">
<path d="M16.6667 18.3333H3.33333C3.11232 18.3333 2.90036 18.2455 2.74408 18.0892C2.5878 17.933 2.5 17.721 2.5 17.5V2.49999C2.5 2.27898 2.5878 2.06701 2.74408 1.91073C2.90036 1.75445 3.11232 1.66666 3.33333 1.66666H16.6667C16.8877 1.66666 17.0996 1.75445 17.2559 1.91073C17.4122 2.06701 17.5 2.27898 17.5 2.49999V17.5C17.5 17.721 17.4122 17.933 17.2559 18.0892C17.0996 18.2455 16.8877 18.3333 16.6667 18.3333ZM15.8333 16.6667V3.33332H4.16667V16.6667H15.8333ZM6.66667 7.49999H13.3333V9.16666H6.66667V7.49999ZM6.66667 10.8333H13.3333V12.5H6.66667V10.8333Z" fill="#1890FF"/>
</g>
<defs>
<clipPath id="clip0_20_176">
<rect width="20" height="20" fill="white"/>
</clipPath>
</defs>
</svg>
