<svg width="20" height="18" viewBox="0 0 20 18" fill="none" xmlns="http://www.w3.org/2000/svg">
<path d="M17.5 15.6667H19.1667V17.3333H0.833344V15.6667H2.50001V1.50001C2.50001 1.27899 2.58781 1.06703 2.74409 0.910749C2.90037 0.754469 3.11233 0.666672 3.33334 0.666672H16.6667C16.8877 0.666672 17.0997 0.754469 17.2559 0.910749C17.4122 1.06703 17.5 1.27899 17.5 1.50001V15.6667ZM15.8333 15.6667V2.33334H4.16668V15.6667H15.8333ZM6.66668 8.16667H9.16668V9.83334H6.66668V8.16667ZM6.66668 4.83334H9.16668V6.5H6.66668V4.83334ZM6.66668 11.5H9.16668V13.1667H6.66668V11.5ZM10.8333 11.5H13.3333V13.1667H10.8333V11.5ZM10.8333 8.16667H13.3333V9.83334H10.8333V8.16667ZM10.8333 4.83334H13.3333V6.5H10.8333V4.83334Z" fill="#BBC3CD"/>
</svg>
