<svg width="18" height="17" viewBox="0 0 18 17" fill="none" xmlns="http://www.w3.org/2000/svg">
<path d="M3.80249 12.1667H15.6667V2.16667H2.33332V13.3208L3.80249 12.1667ZM4.37916 13.8333L0.666656 16.75V1.33333C0.666656 1.11232 0.754454 0.900358 0.910734 0.744078C1.06701 0.587797 1.27898 0.5 1.49999 0.5H16.5C16.721 0.5 16.933 0.587797 17.0892 0.744078C17.2455 0.900358 17.3333 1.11232 17.3333 1.33333V13C17.3333 13.221 17.2455 13.433 17.0892 13.5893C16.933 13.7455 16.721 13.8333 16.5 13.8333H4.37916ZM8.16666 9.66667H9.83332V11.3333H8.16666V9.66667ZM6.13916 5.34417C6.24743 4.80233 6.50734 4.30237 6.88865 3.90248C7.26997 3.50259 7.757 3.2192 8.29308 3.0853C8.82916 2.95139 9.39225 2.97248 9.91681 3.1461C10.4414 3.31971 10.9059 3.63873 11.2562 4.06602C11.6065 4.4933 11.8283 5.01129 11.8958 5.55971C11.9632 6.10813 11.8736 6.66443 11.6372 7.16387C11.4008 7.66332 11.0275 8.08537 10.5606 8.38092C10.0937 8.67646 9.55254 8.83335 8.99999 8.83333H8.16666V7.16667H8.99999C9.23672 7.16665 9.46858 7.09941 9.66859 6.97277C9.86861 6.84614 10.0285 6.6653 10.1298 6.45132C10.2311 6.23734 10.2695 5.999 10.2406 5.76404C10.2117 5.52908 10.1166 5.30715 9.96652 5.12409C9.81641 4.94103 9.61742 4.80436 9.39267 4.72997C9.16793 4.65559 8.92669 4.64656 8.69701 4.70392C8.46733 4.76129 8.25867 4.88269 8.0953 5.05401C7.93192 5.22533 7.82056 5.43953 7.77416 5.67167L6.13916 5.34417Z" fill="#BBC3CD"/>
</svg>
